<svg width="52" height="52" viewBox="0 0 52 52" fill="none" xmlns="http://www.w3.org/2000/svg">
<path fill-rule="evenodd" clip-rule="evenodd" d="M37.375 33.0912C37.375 37.6692 32.8034 42.25 26 42.25C19.1966 42.25 14.625 37.6692 14.625 33.0912C14.625 28.3426 17.7135 22.4289 21.3436 17.2807C22.9843 14.9539 24.631 12.927 25.9187 11.4297C27.2309 13.044 28.9336 15.2415 30.6301 17.7215C32.3989 20.3072 34.1194 23.1397 35.3871 25.8964C36.678 28.7036 37.375 31.1685 37.375 33.0912ZM11.375 33.0912C11.375 24.2564 19.7132 13.6028 23.7978 8.91415C25.1227 7.39327 26 6.5 26 6.5C26 6.5 26.8405 7.42912 28.1185 8.98551C32.1716 13.9214 40.625 25.1659 40.625 33.0912C40.625 39.9444 34.0772 45.5 26 45.5C17.9228 45.5 11.375 39.9444 11.375 33.0912ZM18.6848 27.625H22.1811C21.5233 29.1264 21.125 30.5502 21.125 31.7615C21.125 33.6214 22.9444 35.75 26 35.75V39C21.5127 39 17.875 35.7592 17.875 31.7615C17.875 30.4275 18.1854 29.0224 18.6848 27.625Z" fill="#1E1E27"/>
</svg>
