<svg width="100" height="100" viewBox="0 0 100 100" fill="none" xmlns="http://www.w3.org/2000/svg">
<rect width="100" height="100" fill="white"/>
<path d="M68.09 27.43H79.7101C80.084 27.43 80.4427 27.2814 80.7071 27.017C80.9715 26.7526 81.1201 26.3939 81.1201 26.02C81.1201 25.646 80.9715 25.2874 80.7071 25.023C80.4427 24.7585 80.084 24.61 79.7101 24.61H68.09C67.7161 24.61 67.3575 24.7585 67.093 25.023C66.8286 25.2874 66.6801 25.646 66.6801 26.02C66.6801 26.3939 66.8286 26.7526 67.093 27.017C67.3575 27.2814 67.7161 27.43 68.09 27.43Z" fill="#333333"/>
<path d="M72.49 20.21V31.83C72.49 32.0152 72.5265 32.1985 72.5973 32.3696C72.6682 32.5406 72.772 32.6961 72.903 32.827C73.0339 32.9579 73.1893 33.0618 73.3604 33.1327C73.5315 33.2035 73.7148 33.24 73.9 33.24C74.0852 33.24 74.2685 33.2035 74.4396 33.1327C74.6106 33.0618 74.7661 32.9579 74.897 32.827C75.0279 32.6961 75.1318 32.5406 75.2027 32.3696C75.2735 32.1985 75.31 32.0152 75.31 31.83V20.21C75.31 20.0248 75.2735 19.8415 75.2027 19.6704C75.1318 19.4993 75.0279 19.3439 74.897 19.213C74.7661 19.082 74.6106 18.9782 74.4396 18.9073C74.2685 18.8365 74.0852 18.8 73.9 18.8C73.7148 18.8 73.5315 18.8365 73.3604 18.9073C73.1893 18.9782 73.0339 19.082 72.903 19.213C72.772 19.3439 72.6682 19.4993 72.5973 19.6704C72.5265 19.8415 72.49 20.0248 72.49 20.21Z" fill="#333333"/>
<path d="M50 85.4C49.3753 85.4016 48.7509 85.3682 48.13 85.3C44.6087 84.9033 41.3025 83.4054 38.6825 81.0195C36.0625 78.6337 34.2624 75.4818 33.5387 72.013C32.815 68.5441 33.2047 64.9354 34.6521 61.701C36.0996 58.4666 38.5311 55.7716 41.6 54V23.84C41.6009 22.5919 41.8797 21.3597 42.416 20.2327C42.9523 19.1057 43.7327 18.1122 44.7006 17.3242C45.6685 16.5363 46.7997 15.9737 48.0121 15.6772C49.2245 15.3807 50.4876 15.3577 51.71 15.61C53.6298 16.032 55.3448 17.1048 56.564 18.6467C57.7833 20.1885 58.4319 22.1046 58.4 24.07V54C61.6125 55.8479 64.1248 58.7051 65.5465 62.1277C66.9682 65.5503 67.2197 69.3466 66.262 72.9268C65.3042 76.507 63.1908 79.6707 60.2501 81.9262C57.3094 84.1818 53.7061 85.403 50 85.4ZM50 19.93C48.9655 19.9353 47.9751 20.3492 47.2446 21.0817C46.514 21.8141 46.1026 22.8056 46.1 23.84V56.84L44.8 57.44C42.2544 58.624 40.1891 60.6413 38.9455 63.1584C37.702 65.6754 37.3546 68.5415 37.9609 71.2827C38.5673 74.0239 40.0909 76.4762 42.28 78.234C44.4691 79.9918 47.1925 80.9499 50 80.9499C52.8074 80.9499 55.5309 79.9918 57.7199 78.234C59.909 76.4762 61.4327 74.0239 62.039 71.2827C62.6453 68.5415 62.298 65.6754 61.0544 63.1584C59.8109 60.6413 57.7456 58.624 55.2 57.44L53.9 56.84V24.07C53.9264 23.1438 53.6369 22.2362 53.0789 21.4965C52.5209 20.7568 51.7278 20.229 50.83 20C50.5565 19.9479 50.2783 19.9244 50 19.93Z" fill="#333333"/>
<path d="M50.01 72.41C52.6334 72.41 54.76 70.2833 54.76 67.66C54.76 65.0366 52.6334 62.91 50.01 62.91C47.3867 62.91 45.26 65.0366 45.26 67.66C45.26 70.2833 47.3867 72.41 50.01 72.41Z" fill="#333333"/>
<path d="M50 66C49.6685 66 49.3505 65.8683 49.1161 65.6339C48.8817 65.3995 48.75 65.0815 48.75 64.75V35.13C48.75 34.7985 48.8817 34.4805 49.1161 34.2461C49.3505 34.0117 49.6685 33.88 50 33.88C50.3315 33.88 50.6495 34.0117 50.8839 34.2461C51.1183 34.4805 51.25 34.7985 51.25 35.13V64.71C51.2554 64.8775 51.227 65.0443 51.1666 65.2006C51.1062 65.357 51.0149 65.4995 50.8983 65.6199C50.7817 65.7402 50.6421 65.8359 50.4878 65.9012C50.3335 65.9665 50.1676 66.0001 50 66Z" fill="#333333"/>
</svg>
